<?xml version="1.0" standalone="no"?>
<!DOCTYPE svg PUBLIC "-//W3C//DTD SVG 20010904//EN"
 "http://www.w3.org/TR/2001/REC-SVG-20010904/DTD/svg10.dtd">
<svg version="1.0" xmlns="http://www.w3.org/2000/svg"
 width="1300.000000pt" height="1040.000000pt" viewBox="0 0 1300.000000 1040.000000"
 preserveAspectRatio="xMidYMid meet">
<metadata>
Created by potrace 1.16, written by Peter Selinger 2001-2019
</metadata>
<g transform="translate(0.000000,1040.000000) scale(0.100000,-0.100000)"
fill="#000000" stroke="none">
<path d="M5520 7734 c-212 -18 -282 -26 -325 -34 -27 -5 -99 -19 -160 -31
-118 -23 -258 -68 -369 -119 -193 -88 -327 -223 -384 -384 -34 -96 -41 -237
-17 -336 15 -62 104 -256 124 -270 4 -3 18 -21 31 -40 86 -123 331 -351 525
-488 33 -23 89 -63 124 -88 87 -63 274 -181 483 -307 219 -132 234 -139 178
-88 -159 144 -357 352 -410 431 -13 19 -27 37 -30 40 -10 8 -82 117 -126 190
-122 202 -187 452 -164 635 21 168 97 339 193 436 150 149 404 237 787 270
163 14 578 6 793 -15 450 -45 1150 -176 1606 -301 208 -57 -193 108 -459 189
-459 139 -1018 243 -1595 296 -119 11 -718 21 -805 14z"/>
<path d="M6004 7420 c-349 -36 -562 -128 -614 -264 -36 -96 17 -241 139 -378
l43 -48 41 34 c54 44 154 98 241 131 38 14 79 31 90 37 12 7 30 13 41 14 11 2
69 14 128 29 173 41 345 57 602 57 258 1 441 -16 715 -62 413 -71 673 -170
775 -295 33 -40 39 -55 43 -105 5 -70 -19 -127 -86 -201 -44 -50 -161 -142
-235 -185 l-42 -26 65 7 c210 21 595 119 762 194 77 34 170 95 210 137 31 33
58 92 58 127 0 112 -133 253 -338 356 -369 186 -1071 357 -1757 427 -182 18
-752 27 -881 14z"/>
<path d="M7360 5296 c0 -2 26 -30 58 -62 182 -186 305 -378 395 -619 109 -292
114 -679 12 -950 -37 -100 -73 -151 -178 -252 -316 -306 -795 -535 -1407 -672
-57 -13 173 -6 319 9 138 15 426 58 496 74 33 8 114 26 180 41 306 70 638 205
860 351 103 68 125 85 213 169 199 189 292 380 292 600 0 217 -80 377 -299
596 -136 135 -226 213 -421 360 -144 109 -520 365 -520 355z"/>
<path d="M6591 4673 c126 -127 224 -247 271 -331 30 -52 31 -53 52 -35 l21 18
-19 -23 c-20 -23 -20 -23 7 -77 14 -29 34 -91 43 -136 46 -228 -62 -381 -389
-554 -146 -77 -235 -114 -486 -201 -118 -41 -224 -82 -235 -92 -19 -16 -20
-16 -7 0 11 15 6 15 -56 -3 -400 -116 -962 -226 -1208 -236 -133 -5 -141 -4
-167 17 -23 18 -28 29 -28 66 0 102 108 252 375 521 104 105 186 189 180 186
-5 -4 -82 -62 -170 -129 -650 -497 -900 -855 -671 -960 141 -64 467 -60 936
12 747 114 1566 368 2005 621 268 155 408 299 436 447 51 277 -290 628 -946
975 l-60 32 116 -118z"/>
</g>
</svg>
